PathFileType	4	(X/Y/Z)	C:\Users\Basilio\Documents\Thesis Gigler\squatting_fais\c3dfiles\040\SLS_pre_back4\markers_experimental.trc
DataRate	CameraRate	NumFrames	NumMarkers	Units	OrigDataRate	OrigDataStartFrame	OrigNumFrames
200.000000	200.000000	4	63	mm	200.000000	936	1249
Frame#	Time	FHD			LBHD			RBHD			C7			T10			CLAV			LSHO			LUUPA			LMUPA			LDUPA			LLEP			LMEP			LRAD			LUL			LRFIN			RSHO			RUPA1			RMUPA			RDUPA			RLEP			RMEP			RRAD			RUL			RUFIN			LASI			RASI			USACR			LSACR			RSACR			LTHI1			LTHI2			LTHI3			LTHI4			LLFC			LMFC			LTIB1			LTIB2			LTIB3			LTIB4			LLMAL			LMMAL			LHEE			LMT1			LMT2			LMT5			RTHI			RTHI2			RTHI3			RTHI4			RLFC			RMFC			RTIB1			RTIB2			RTIB3			RTIB4			RLMAL			RMMAL			RHEE			RMT1			RMT2			RMT5			*61			*62			
		X1	Y1	Z1	X2	Y2	Z2	X3	Y3	Z3	X4	Y4	Z4	X5	Y5	Z5	X6	Y6	Z6	X7	Y7	Z7	X8	Y8	Z8	X9	Y9	Z9	X10	Y10	Z10	X11	Y11	Z11	X12	Y12	Z12	X13	Y13	Z13	X14	Y14	Z14	X15	Y15	Z15	X16	Y16	Z16	X17	Y17	Z17	X18	Y18	Z18	X19	Y19	Z19	X20	Y20	Z20	X21	Y21	Z21	X22	Y22	Z22	X23	Y23	Z23	X24	Y24	Z24	X25	Y25	Z25	X26	Y26	Z26	X27	Y27	Z27	X28	Y28	Z28	X29	Y29	Z29	X30	Y30	Z30	X31	Y31	Z31	X32	Y32	Z32	X33	Y33	Z33	X34	Y34	Z34	X35	Y35	Z35	X36	Y36	Z36	X37	Y37	Z37	X38	Y38	Z38	X39	Y39	Z39	X40	Y40	Z40	X41	Y41	Z41	X42	Y42	Z42	X43	Y43	Z43	X44	Y44	Z44	X45	Y45	Z45	X46	Y46	Z46	X47	Y47	Z47	X48	Y48	Z48	X49	Y49	Z49	X50	Y50	Z50	X51	Y51	Z51	X52	Y52	Z52	X53	Y53	Z53	X54	Y54	Z54	X55	Y55	Z55	X56	Y56	Z56	X57	Y57	Z57	X58	Y58	Z58	X59	Y59	Z59	X60	Y60	Z60	X61	Y61	Z61	X62	Y62	Z62	X63	Y63	Z63	

937	4.68	-216.3379821777344	1773.334350585938	-1205.731079101563	-341.0450439453126	1725.879150390625	-1252.93994140625	-399.9521789550782	1687.225708007813	-1124.219604492188	-390.301483154297	1552.526733398438	-1172.37353515625	-373.0564880371094	1232.3515625	-1146.301025390625	-253.5628662109376	1504.974609375	-1170.077880859375	-304.3083190917969	1544.033569335938	-1318.439208984375	-132.4810028076172	1503.050170898438	-1372.43310546875	-108.5570449829102	1520.505859375	-1332.578369140625	-64.10328674316408	1494.661010742188	-1365.049682617188	-6.765200138092043	1471.815551757813	-1357.134887695313	-18.30432510375977	1417.693725585938	-1320.201904296875	242.4121551513672	1505.1689453125	-1210.429931640625	259.4849243164063	1513.887451171875	-1285.232177734375	332.2959289550782	1519.338134765625	-1191.185546875	-291.5304870605469	1541.55615234375	-1025.59716796875	-127.3867416381836	1470.765380859375	-961.5080566406252	-100.5955047607422	1497.115112304688	-992.585876464844	-60.24303436279298	1455.826049804688	-972.9327392578127	0.03799640387296677	1447.51171875	-989.2922363281252	-14.35740661621094	1398.197021484375	-1043.907592773438	251.6604461669922	1516.456665039063	-1130.438720703125	265.3126525878907	1490.732055664063	-1058.534423828125	348.8849792480469	1517.955322265625	-1132.82861328125	-171.3925323486328	1080.025756835938	-1259.598876953125	-157.1970367431641	1086.144409179688	-1027.377807617188	-353.7041625976563	1104.750244140625	-1128.040771484375	-357.8107604980469	1075.581298828125	-1154.0283203125	-354.2735900878907	1076.486572265625	-1098.040649414063	-294.9856262207032	817.6907958984377	-1288.249389648438	-256.2224121093751	741.5257568359376	-1294.765258789063	-210.9541320800782	746.2405395507814	-1302.435180664063	-276.9660644531251	689.5440063476564	-1275.827392578125	-254.8698272705079	555.2019653320314	-1258.988525390625	-247.681381225586	547.0234375000001	-1126.724975585938	-246.3366851806641	329.7431640625001	-1196.94873046875	-321.7818603515626	299.8892822265626	-1231.674560546875	-280.6361999511719	287.1005554199219	-1218.625244140625	-283.9030151367188	211.6817169189454	-1174.982788085938	-360.9845275878907	132.5558166503907	-1177.733032226563	-328.9484252929688	149.775375366211	-1097.8017578125	-430.2032775878907	103.6013412475586	-1127.893188476563	-217.4042205810547	56.9198455810547	-1104.660522460938	-218.3435058593751	50.35152816772462	-1150.555297851563	-271.2814941406251	37.84967422485352	-1199.364501953125	-178.3506927490235	816.1089477539065	-939.600769042969	-135.9101715087891	765.7476806640626	-934.6833496093752	-103.1998672485352	772.120788574219	-937.4861450195315	-151.3755798339844	682.9619750976564	-936.389099121094	-151.8745269775391	572.8815307617189	-949.4733886718752	-124.5081405639649	560.7073974609376	-1072.50390625	-260.1189270019532	430.3211975097657	-999.9145507812502	-363.7428894042969	458.2446289062501	-1013.0849609375	-343.8835754394532	416.3178710937501	-1012.293090820313	-365.5662231445313	376.8393859863282	-1051.708984375	-490.3807983398439	369.0128173828126	-1071.807861328125	-444.3316955566407	353.2024536132813	-1143.8095703125	-530.0388793945314	406.417938232422	-1151.542236328125	-460.9911193847657	196.6170959472657	-1125.96044921875	-475.3909912109376	200.8593444824219	-1089.086669921875	-531.3153686523439	231.0057983398438	-1058.183837890625	nan	nan	nan	nan	nan	nan	
938	4.685	-217.7834777832032	1773.86767578125	-1205.723266601563	-340.9573059082032	1726.027221679688	-1252.746826171875	-399.7620544433595	1687.233032226563	-1123.99560546875	-390.1112670898439	1552.618286132813	-1172.320068359375	-373.0854492187501	1232.396728515625	-1146.345703125	-253.4845581054688	1505.016479492188	-1170.01171875	-304.2670898437501	1544.174072265625	-1318.336303710938	-132.2439117431641	1503.245727539063	-1372.485717773438	-108.4920120239258	1520.601440429688	-1332.454956054688	-64.04673767089845	1494.779907226563	-1364.94677734375	-6.676755905151369	1472.080200195313	-1357.103881835938	-18.01982498168946	1417.90673828125	-1320.202026367188	242.4431152343751	1505.396240234375	-1210.287841796875	259.5720214843751	1514.338623046875	-1285.117797851563	332.3795166015626	1519.834838867188	-1191.109497070313	-291.5162353515626	1541.604614257813	-1025.577880859375	-127.262191772461	1470.802124023438	-961.4583129882815	-100.6049346923828	1497.176025390625	-992.5925292968752	-60.1178665161133	1456.011962890625	-972.7700805664065	0.06151146441698076	1447.66259765625	-989.1950683593752	-14.32065391540528	1398.185791015625	-1043.650268554688	252.2883758544922	1517.593627929688	-1130.327880859375	265.6963806152344	1491.111083984375	-1058.365234375	349.2540893554688	1518.226806640625	-1132.39208984375	-171.345199584961	1080.0869140625	-1259.544067382813	-157.2175903320313	1086.218872070313	-1027.296020507813	-353.7213745117188	1104.723388671875	-1128.033569335938	-357.9136962890626	1075.600341796875	-1154.090698242188	-354.2773742675782	1076.45458984375	-1098.051025390625	-294.8494873046876	817.813659667969	-1288.28759765625	-256.0727844238282	741.5750732421876	-1294.678344726563	-210.8352661132813	746.3492431640626	-1302.365112304688	-276.7149353027344	689.5726928710939	-1275.85791015625	-254.6370544433594	555.3189086914064	-1259.0078125	-247.6435241699219	547.0892944335939	-1126.731079101563	-246.2652587890626	329.7362060546876	-1196.85498046875	-321.6905517578126	299.9560546875001	-1231.701904296875	-280.4770507812501	287.1707458496094	-1218.64404296875	-283.8695678710938	211.7434844970704	-1175.010009765625	-360.8107910156251	132.4434967041016	-1177.777465820313	-328.9586181640626	149.9090881347657	-1097.932006835938	-430.1653137207032	103.6602325439453	-1127.810668945313	-217.4254455566407	56.84837341308595	-1104.680786132813	-218.4353637695313	50.30767059326173	-1150.539306640625	-270.7187500000001	37.74738693237305	-1199.674682617188	-178.5500793457032	816.254577636719	-939.5834960937502	-136.0987396240235	765.6273193359376	-934.6691894531252	-103.8178634643555	772.180114746094	-937.1909179687502	-151.8374328613282	682.9452514648439	-936.236755371094	-152.0961151123047	572.8723144531251	-949.3928222656252	-124.7946243286133	560.7072753906251	-1072.30859375	-260.1309814453126	430.307342529297	-999.6509399414065	-364.1259155273438	458.272430419922	-1013.134948730469	-344.0635986328126	416.1887512207032	-1012.171813964844	-365.7305603027344	376.7280578613282	-1051.521362304688	-490.2618713378907	369.1648254394532	-1071.503173828125	-444.5316162109376	352.8637390136719	-1143.7216796875	-530.2383422851564	406.116912841797	-1151.521728515625	-461.0435791015626	195.6071014404297	-1125.222290039063	-475.3393554687501	200.8655242919922	-1088.241455078125	-531.8096313476564	231.0348358154297	-1057.612182617188	nan	nan	nan	nan	nan	nan	
939	4.69	-217.0389556884766	1773.775390625	-1205.495971679688	-340.7628784179688	1726.126708984375	-1252.531372070313	-399.6295471191407	1687.303344726563	-1123.808349609375	-390.0188598632814	1552.68701171875	-1172.294067382813	-373.0429687500001	1232.53271484375	-1146.358642578125	-253.4042510986329	1505.039428710938	-1169.965087890625	-304.0538024902344	1544.18798828125	-1318.248779296875	-132.0697174072266	1503.412231445313	-1372.54150390625	-108.2393341064453	1520.711059570313	-1332.393676757813	-63.95056152343751	1495.0263671875	-1364.846923828125	-6.218184947967531	1472.042846679688	-1357.0400390625	-17.91990852355957	1418.231567382813	-1320.272705078125	242.5753631591797	1505.733154296875	-1210.11328125	259.7173156738282	1514.784912109375	-1285.041748046875	332.5252685546876	1520.242431640625	-1191.002319335938	-291.4736022949219	1541.606811523438	-1025.519409179688	-127.1977920532227	1471.055541992188	-961.3631591796877	-100.5232009887696	1497.411865234375	-992.565368652344	-60.18876266479494	1456.078247070313	-972.7825317382815	0.124595582485199	1447.651977539063	-989.093200683594	-14.27139472961426	1398.172973632813	-1043.476928710938	252.2141571044922	1518.178833007813	-1129.960815429688	265.2162170410157	1491.010131835938	-1058.643432617188	349.0716552734376	1518.765258789063	-1132.03759765625	-171.2174835205078	1080.152709960938	-1259.465576171875	-157.301742553711	1086.20703125	-1027.1337890625	-353.8174133300782	1104.805908203125	-1128.042236328125	-357.9749450683594	1075.637573242188	-1154.157104492188	-354.4184265136719	1076.454467773438	-1098.142211914063	-294.6306152343751	817.916442871094	-1288.353149414063	-255.7872009277344	741.5914306640626	-1294.632690429688	-210.6882476806641	746.4148559570314	-1302.3369140625	-276.5642395019532	689.6234741210939	-1275.879272460938	-254.3643646240235	555.3765258789064	-1258.958129882813	-247.6495056152344	547.2050170898439	-1126.6923828125	-246.1914215087891	329.7167053222657	-1196.909790039063	-321.4849853515626	300.0361328125001	-1231.741821289063	-280.1526794433594	287.2241821289063	-1218.733520507813	-283.8409118652344	211.7309112548829	-1175.017333984375	-362.0534362792969	133.0201873779297	-1178.463500976563	-328.8951416015626	149.8480834960938	-1097.9013671875	-430.158905029297	103.7305145263672	-1127.71826171875	-217.4315185546876	56.94924545288087	-1104.683227539063	-218.2995910644532	50.33942794799806	-1150.5849609375	-270.6099548339844	37.65405654907227	-1199.729125976563	-178.7635498046875	816.2363891601565	-939.5148925781252	-136.2159271240235	765.6307983398439	-934.6226806640627	-104.0342407226563	772.1660156250002	-937.108337402344	-152.3907318115235	683.0256347656251	-936.131042480469	-152.2696838378907	572.6952514648439	-949.3394775390627	-125.1759185791016	560.6799926757814	-1072.17724609375	-260.2895507812501	430.2306213378907	-999.6217041015627	-364.5022583007813	457.8861389160157	-1012.886779785156	-344.4039001464844	415.9573669433595	-1011.985900878906	-365.9997558593751	376.6272277832032	-1051.266967773438	-490.7611389160157	368.8605041503907	-1071.510498046875	-444.6490173339845	352.5205688476563	-1143.519165039063	-530.5296020507814	405.7518920898439	-1151.493286132813	-461.5100708007814	196.0414733886719	-1124.16259765625	-475.9822387695314	201.1248474121094	-1087.454956054688	-532.0167236328126	231.1035308837891	-1057.048217773438	nan	nan	nan	nan	nan	nan	
940	4.695	-217.0122833251954	1773.813598632813	-1205.393188476563	-340.5516662597657	1726.316772460938	-1252.389404296875	-399.4712219238282	1687.429321289063	-1123.629760742188	-389.9363403320314	1552.747802734375	-1172.294677734375	-373.0430908203126	1232.664184570313	-1146.375366210938	-253.2687225341797	1505.114624023438	-1169.864624023438	-304.0067138671876	1544.449462890625	-1318.136840820313	-132.0205688476563	1503.559448242188	-1372.526245117188	-108.1731872558594	1520.89208984375	-1332.345336914063	-63.82977294921876	1495.209228515625	-1364.889526367188	-6.099849224090578	1472.267944335938	-1357.06396484375	-17.63162803649903	1418.228759765625	-1320.131958007813	242.7284240722657	1505.901733398438	-1209.903076171875	259.4053649902344	1515.479125976563	-1284.940307617188	332.6409606933594	1520.678588867188	-1190.994750976563	-291.3988647460938	1541.647216796875	-1025.447143554688	-127.1595306396485	1471.131225585938	-961.2266845703127	-100.4901123046875	1497.662475585938	-992.4362792968752	-59.99581527709962	1456.242431640625	-972.665466308594	0.1626328229904175	1447.766845703125	-988.9490356445315	-14.24665546417237	1398.423706054688	-1043.206665039063	252.2472229003907	1518.763793945313	-1129.517333984375	265.3414916992188	1491.121948242188	-1058.41064453125	349.3074340820313	1518.901245117188	-1131.5087890625	-171.166488647461	1080.205688476563	-1259.325439453125	-157.4102325439453	1086.27978515625	-1027.06494140625	-353.8574523925782	1105.13623046875	-1128.12548828125	-358.0682067871094	1075.709350585938	-1154.21923828125	-354.5464782714844	1076.509399414063	-1098.153198242188	-294.3620300292969	817.9056396484377	-1288.474853515625	-255.7551574707032	741.6474609375001	-1294.563598632813	-210.4154357910157	746.4141235351564	-1302.177856445313	-276.3530273437501	689.6730346679689	-1275.9033203125	-254.2315368652344	555.3897705078126	-1258.981323242188	-247.5482788085938	547.2619018554689	-1126.660522460938	-246.031478881836	329.8580017089844	-1196.950073242188	-321.4611511230469	300.1148986816407	-1231.761108398438	-279.9903564453126	287.2780456542969	-1218.805908203125	-283.7496337890626	211.7280731201172	-1175.030639648438	-360.8349304199219	132.6859436035157	-1177.90234375	-328.9098815917969	149.9867706298828	-1098.01708984375	-430.1351318359376	103.8157348632813	-1127.684936523438	-217.4087066650391	56.92864990234376	-1104.73779296875	-218.3304443359376	50.32918167114259	-1150.646850585938	-271.0589599609376	37.93182373046876	-1199.857666015625	-179.1937255859375	816.2642211914065	-939.3939208984377	-136.6176452636719	765.5727539062501	-934.5690917968752	-104.3466415405274	772.0391235351565	-937.025085449219	-152.7772979736328	683.0297851562501	-935.9714965820315	-152.5550994873047	572.6480712890626	-949.217712402344	-125.6659088134766	560.7137451171876	-1071.968872070313	-260.4704589843751	430.2115783691407	-999.5113525390627	-365.0489807128907	458.1006469726564	-1012.905456542969	-344.7155761718751	415.8994750976564	-1011.850891113281	-366.1242980957032	376.5600280761719	-1051.011474609375	-491.1193847656251	368.7160034179688	-1071.397827148438	-444.7910461425782	352.1885681152344	-1143.40869140625	-530.5794677734376	405.2023315429689	-1151.488159179688	-461.8583068847657	195.9791870117188	-1123.472412109375	-476.1750793457032	200.5076446533204	-1087.154663085938	-532.2496337890626	230.9666442871094	-1056.57958984375	nan	nan	nan	nan	nan	nan	
